# xmcd CD database file
#
# Track frame offsets:
#	150
#	21266
#	38004
#	53730
#	70787
#	96861
#	116123
#	141967
#	163557
#	186898
#	201835
#	228607
#	242880
#	256351
#
# Disc length: 3499 seconds
#
# Revision: 0
# Processed by: cddbd v1.5.2PL0 Copyright (c) Steve Scherf et al.
# Submitted via: CDex 1.70beta2
#
DISCID=c70da90e
DTITLE=Swing Dance! - Swing Dance!
DYEAR=2010
DGENRE=Jazz
TTITLE0=Air Mail Special(Club Des Belugas Remix)
TTITLE1=Madame Coquette
TTITLE2=Sugar
TTITLE3=But Dear
TTITLE4=Kosmo and Yahoodi
TTITLE5=Bad Boy Good Man
TTITLE6=Chambermaid Swing
TTITLE7=Goin' Nuts
TTITLE8=Hard Swing Travelin' Man (Smoove Remix)
TTITLE9=I Got A Girl
TTITLE10=A Night In Torino
TTITLE11=Swingin Man
TTITLE12=C'est CA Le Vrai Bonheur
TTITLE13=Crafty Outro
EXTD=YEAR: 2010
EXTT0=
EXTT1=
EXTT2=
EXTT3=
EXTT4=
EXTT5=
EXTT6=
EXTT7=
EXTT8=
EXTT9=
EXTT10=
EXTT11=
EXTT12=
EXTT13=
PLAYORDER=
